<svg xmlns="http://www.w3.org/2000/svg" viewBox="0 0 64 64" xmlns:c2pa="http://c2pa.org/manifest"><metadata><c2pa:manifest>AAAWgmp1bWIAAAAeanVtZGMycGEAEQAQgAAAqgA4m3EDYzJwYQAAABZcanVtYgAAAEdqdW1kYzJtYQARABCAAACqADibcQN1cm46YzJwYTo0ODk1MzQxMi1lMzhkLTQ2ZGMtODJhNC02OWNkMmZmMzI0NzgAAAADl2p1bWIAAAApanVtZGMyYXMAEQAQgAAAqgA4m3EDYzJwYS5hc3NlcnRpb25zAAAAALxqdW1iAAAARGp1bWRjYm9yABEAEIAAAKoAOJtxE2MycGEuaW5ncmVkaWVudC52MwAAAAAYYzJzaJW2EG1pKj2DGo8kkNv+D9sAAABwY2JvcqNpZGM6Zm9ybWF0bWltYWdlL3N2Zyt4bWxqaW5zdGFuY2VJRHgseG1wOmlpZDphMzRiZjI2OC0yNDhkLTRhYjQtYTA4Ni0wOTk3NmIxODYyNWVscmVsYXRpb25zaGlwaHBhcmVudE9mAAAB4mp1bWIAAABBanVtZGNib3IAEQAQgAAAqgA4m3ETYzJwYS5hY3Rpb25zLnYyAAAAABhjMnNo3IkTG1bI4D7Q53uJCecoagAAAZljYm9yomdhY3Rpb25zgqJmYWN0aW9ua2MycGEub3BlbmVkanBhcmFtZXRlcnOha2luZ3JlZGllbnRzgaJjdXJseC1zZWxmI2p1bWJmPWMycGEuYXNzZXJ0aW9ucy9jMnBhLmluZ3JlZGllbnQudjNkaGFzaFggxJljzTOtMrPGchRUcP59IUTUUuqdr/gULo2NUpBF7eSkZmFjdGlvbngdY29tLmFudGhyb3BpYy5jbGF1ZGUucHJvdmlkZWRqcGFyYW1ldGVyc6F4H2NvbS5hbnRocm9waWMub3JpZ2luLWNvbmZpZGVuY2VndW5rbm93bmtkZXNjcmlwdGlvbnhmQ2xhdWRlIHByb3ZpZGVkIHRoaXMgZmlsZSBhdCB0aGUgcmVxdWVzdCBvZiBhIHVzZXIgYW5kIG1heSBoYXZlIGNyZWF0ZWQgb3IgbW9kaWZpZWQgdGhlIGZpbGUgY29udGVudHMubXNvZnR3YXJlQWdlbnShZG5hbWVmQ2xhdWRlcmFsbEFjdGlvbnNJbmNsdWRlZPUAAADIanVtYgAAAEBqdW1kY2JvcgARABCAAACqADibcRNjMnBhLmhhc2guZGF0YQAAAAAYYzJzaJWuba+4BDlURjMsqyDNmLkAAACAY2JvcqVjYWxnZnNoYTI1NmNwYWRNAAAAAAAAAAAAAAAAAGRoYXNoWCAY7WO1tS6hTVyadDxTaDdm1fS57eFd2MXCv1U1iy7/gGRuYW1lbmp1bWJmIG1hbmlmZXN0amV4Y2x1c2lvbnOBomVzdGFydBh7Zmxlbmd0aBkeBAAAAj5qdW1iAAAAJ2p1bWRjMmNsABEAEIAAAKoAOJtxA2MycGEuY2xhaW0udjIAAAACD2Nib3KlY2FsZ2ZzaGEyNTZpc2lnbmF0dXJleE1zZWxmI2p1bWJmPS9jMnBhL3VybjpjMnBhOjQ4OTUzNDEyLWUzOGQtNDZkYy04MmE0LTY5Y2QyZmYzMjQ3OC9jMnBhLnNpZ25hdHVyZWppbnN0YW5jZUlEeCx4bXA6aWlkOjVmNTQwZDhiLWU3NWItNDMzMC05ZDUyLTQwMTI5NTJjY2QxMXJjcmVhdGVkX2Fzc2VydGlvbnODomN1cmx4LXNlbGYjanVtYmY9YzJwYS5hc3NlcnRpb25zL2MycGEuaW5ncmVkaWVudC52M2RoYXNoWCDEmWPNM60ys8ZyFFRw/n0hRNRS6p2v+BQujY1SkEXt5KJjdXJseCpzZWxmI2p1bWJmPWMycGEuYXNzZXJ0aW9ucy9jMnBhLmFjdGlvbnMudjJkaGFzaFggjp27Mmsl2VfrbK6/g0ygMOIwwWsFL7s2vXmF5UuVkY2iY3VybHgpc2VsZiNqdW1iZj1jMnBhLmFzc2VydGlvbnMvYzJwYS5oYXNoLmRhdGFkaGFzaFggxeIjPDb2YP0BsF6YcYZ0Wk8XnDeHJze4L/CLdtBmGLt0Y2xhaW1fZ2VuZXJhdG9yX2luZm+jZG5hbWVvQW50aHJvcGljIEZpbGVzZ3ZlcnNpb25lMS4wLjBrc3BlY1ZlcnNpb25lMi40LjAAABA4anVtYgAAAChqdW1kYzJjcwARABCAAACqADibcQNjMnBhLnNpZ25hdHVyZQAAABAIY2JvctKEWQISogEmGCFZAgowggIGMIIBjaADAgECAhRA5aAK7sI50L64g/oGQgU9Z1UTADAKBggqhkjOPQQDAzBJMRcwFQYDVQQKEw5BbnRocm9waWMsIFBCQzEuMCwGA1UEAxMlQW50aHJvcGljIENvbnRlbnQgQ3JlZGVudGlhbHMgUm9vdCBDQTAeFw0yNjA4MDcxODQzNTZaFw0yODA4MDYxOTQzNTZaMEQxFzAVBgNVBAoTDkFudGhyb3BpYywgUEJDMSkwJwYDVQQDEyBBbnRocm9waWMgQ2xhdWRlIENvbnRlbnQgU2lnbmluZzBZMBMGByqGSM49AgEGCCqGSM49AwEHA0IABJh6CmvLUBgFFNU0vUKlOVtE6djd17L5SuwX0LemFisBM3dkd/3cyjxFA3Qo5S46fX0/ihY0VZ7mfb9KF703t5OjWDBWMA4GA1UdDwEB/wQEAwIHgDAVBgNVHSUEDjAMBgorBgEEAYPoXgIBMAwGA1UdEwEB/wQCMAAwHwYDVR0jBBgwFoAUzlHiBIFOZFsj+OPEz5o+nMHXXMIwCgYIKoZIzj0EAwMDZwAwZAIwMXMdFJ4BetLLVY7ORuE9noqbbAZOZn/aArXyTwFAZfKrPzxF2vPoJNf1+UCdg1XGAjBwX1zd9WGqYkqmL5SFqw1QySjr1zJfpJM9+1rdDwSPLMOPOjKuiXjoU/pUUeG9RwmhY3BhZFkNngAAAAAAAAAAAAAAAAAAAAAAAAAAAAAAAAAAAAAAAAAAAAAAAAAAAAAAAAAAAAAAAAAAAAAAAAAAAAAAAAAAAAAAAAAAAAAAAAAAAAAAAAAAAAAAAAAAAAAAAAAAAAAAAAAAAAAAAAAAAAAAAAAAAAAAAAAAAAAAAAAAAAAAAAAAAAAAAAAAAAAAAAAAAAAAAAAAAAAAAAAAAAAAAAAAAAAAAAAAAAAAAAAAAAAAAAAAAAAAAAAAAAAAAAAAAAAAAAAAAAAAAAAAAAAAAAAAAAAAAAAAAAAAAAAAAAAAAAAAAAAAAAAAAAAAAAAAAAAAAAAAAAAAAAAAAAAAAAAAAAAAAAAAAAAAAAAAAAAAAAAAAAAAAAAAAAAAAAAAAAAAAAAAAAAAAAAAAAAAAAAAAAAAAAAAAAAAAAAAAAAAAAAAAAAAAAAAAAAAAAAAAAAAAAAAAAAAAAAAAAAAAAAAAAAAAAAAAAAAAAAAAAAAAAAAAAAAAAAAAAAAAAAAAAAAAAAAAAAAAAAAAAAAAAAAAAAAAAAAAAAAAAAAAAAAAAAAAAAAAAAAAAAAAAAAAAAAAAAAAAAAAAAAAAAAAAAAAAAAAAAAAAAAAAAAAAAAAAAAAAAAAAAAAAAAAAAAAAAAAAAAAAAAAAAAAAAAAAAAAAAAAAAAAAAAAAAAAAAAAAAAAAAAAAAAAAAAAAAAAAAAAAAAAAAAAAAAAAAAAAAAAAAAAAAAAAAAAAAAAAAAAAAAAAAAAAAAAAAAAAAAAAAAAAAAAAAAAAAAAAAAAAAAAAAAAAAAAAAAAAAAAAAAAAAAAAAAAAAAAAAAAAAAAAAAAAAAAAAAAAAAAAAAAAAAAAAAAAAAAAAAAAAAAAAAAAAAAAAAAAAAAAAAAAAAAAAAAAAAAAAAAAAAAAAAAAAAAAAAAAAAAAAAAAAAAAAAAAAAAAAAAAAAAAAAAAAAAAAAAAAAAAAAAAAAAAAAAAAAAAAAAAAAAAAAAAAAAAAAAAAAAAAAAAAAAAAAAAAAAAAAAAAAAAAAAAAAAAAAAAAAAAAAAAAAAAAAAAAAAAAAAAAAAAAAAAAAAAAAAAAAAAAAAAAAAAAAAAAAAAAAAAAAAAAAAAAAAAAAAAAAAAAAAAAAAAAAAAAAAAAAAAAAAAAAAAAAAAAAAAAAAAAAAAAAAAAAAAAAAAAAAAAAAAAAAAAAAAAAAAAAAAAAAAAAAAAAAAAAAAAAAAAAAAAAAAAAAAAAAAAAAAAAAAAAAAAAAAAAAAAAAAAAAAAAAAAAAAAAAAAAAAAAAAAAAAAAAAAAAAAAAAAAAAAAAAAAAAAAAAAAAAAAAAAAAAAAAAAAAAAAAAAAAAAAAAAAAAAAAAAAAAAAAAAAAAAAAAAAAAAAAAAAAAAAAAAAAAAAAAAAAAAAAAAAAAAAAAAAAAAAAAAAAAAAAAAAAAAAAAAAAAAAAAAAAAAAAAAAAAAAAAAAAAAAAAAAAAAAAAAAAAAAAAAAAAAAAAAAAAAAAAAAAAAAAAAAAAAAAAAAAAAAAAAAAAAAAAAAAAAAAAAAAAAAAAAAAAAAAAAAAAAAAAAAAAAAAAAAAAAAAAAAAAAAAAAAAAAAAAAAAAAAAAAAAAAAAAAAAAAAAAAAAAAAAAAAAAAAAAAAAAAAAAAAAAAAAAAAAAAAAAAAAAAAAAAAAAAAAAAAAAAAAAAAAAAAAAAAAAAAAAAAAAAAAAAAAAAAAAAAAAAAAAAAAAAAAAAAAAAAAAAAAAAAAAAAAAAAAAAAAAAAAAAAAAAAAAAAAAAAAAAAAAAAAAAAAAAAAAAAAAAAAAAAAAAAAAAAAAAAAAAAAAAAAAAAAAAAAAAAAAAAAAAAAAAAAAAAAAAAAAAAAAAAAAAAAAAAAAAAAAAAAAAAAAAAAAAAAAAAAAAAAAAAAAAAAAAAAAAAAAAAAAAAAAAAAAAAAAAAAAAAAAAAAAAAAAAAAAAAAAAAAAAAAAAAAAAAAAAAAAAAAAAAAAAAAAAAAAAAAAAAAAAAAAAAAAAAAAAAAAAAAAAAAAAAAAAAAAAAAAAAAAAAAAAAAAAAAAAAAAAAAAAAAAAAAAAAAAAAAAAAAAAAAAAAAAAAAAAAAAAAAAAAAAAAAAAAAAAAAAAAAAAAAAAAAAAAAAAAAAAAAAAAAAAAAAAAAAAAAAAAAAAAAAAAAAAAAAAAAAAAAAAAAAAAAAAAAAAAAAAAAAAAAAAAAAAAAAAAAAAAAAAAAAAAAAAAAAAAAAAAAAAAAAAAAAAAAAAAAAAAAAAAAAAAAAAAAAAAAAAAAAAAAAAAAAAAAAAAAAAAAAAAAAAAAAAAAAAAAAAAAAAAAAAAAAAAAAAAAAAAAAAAAAAAAAAAAAAAAAAAAAAAAAAAAAAAAAAAAAAAAAAAAAAAAAAAAAAAAAAAAAAAAAAAAAAAAAAAAAAAAAAAAAAAAAAAAAAAAAAAAAAAAAAAAAAAAAAAAAAAAAAAAAAAAAAAAAAAAAAAAAAAAAAAAAAAAAAAAAAAAAAAAAAAAAAAAAAAAAAAAAAAAAAAAAAAAAAAAAAAAAAAAAAAAAAAAAAAAAAAAAAAAAAAAAAAAAAAAAAAAAAAAAAAAAAAAAAAAAAAAAAAAAAAAAAAAAAAAAAAAAAAAAAAAAAAAAAAAAAAAAAAAAAAAAAAAAAAAAAAAAAAAAAAAAAAAAAAAAAAAAAAAAAAAAAAAAAAAAAAAAAAAAAAAAAAAAAAAAAAAAAAAAAAAAAAAAAAAAAAAAAAAAAAAAAAAAAAAAAAAAAAAAAAAAAAAAAAAAAAAAAAAAAAAAAAAAAAAAAAAAAAAAAAAAAAAAAAAAAAAAAAAAAAAAAAAAAAAAAAAAAAAAAAAAAAAAAAAAAAAAAAAAAAAAAAAAAAAAAAAAAAAAAAAAAAAAAAAAAAAAAAAAAAAAAAAAAAAAAAAAAAAAAAAAAAAAAAAAAAAAAAAAAAAAAAAAAAAAAAAAAAAAAAAAAAAAAAAAAAAAAAAAAAAAAAAAAAAAAAAAAAAAAAAAAAAAAAAAAAAAAAAAAAAAAAAAAAAAAAAAAAAAAAAAAAAAAAAAAAAAAAAAAAAAAAAAAAAAAAAAAAAAAAAAAAAAAAAAAAAAAAAAAAAAAAAAAAAAAAAAAAAAAAAAAAAAAAAAAAAAAAAAAAAAAAAAAAAAAAAAAAAAAAAAAAAAAAAAAAAAAAAAAAAAAAAAAAAAAAAAAAAAAAAAAAAAAAAAAAAAAAAAAAAAAAAAAAAAAAAAAAAAAAAAAAAAAAAAAAAAAAAAAAAAAAAAAAAAAAAAAAAAAAAAAAAAAAAAAAAAAAAAAAAAAAAAAAAAAAAAAAAAAAAAAAAAAAAAAAAAAAAAAAAAAAAAAAAAAAAAAAAAAAAAAAAAAAAAAAAAAAAAAAAAAAAAAAAAAAAAAAAAAAAAAAAAAAAAAAAAAAAAAAAAAAAAAAAAAAAAAAAAAAAAAAAAAAAAAAAAAAAAAAAAAAAAAAAAAAAAAAAAAAAAAAAAAAAAAAAAAAAAAAAAAAAAAAAAAAAAAAAAAAAAAAAAAAAAAAAAAAAAAAAAAAAAAAAAAAAAAAAAAAAAAAAAAAAAAAAAAAAAAAAAAAAAAAAAAAAAAAAAAAAAAAAAAAAAAAAAAAAAAAAAAAAAAAAAAAAAAAAAAAAAAAAAAAAAAAAAAAAAAAAAAAAAAAAAAAAAAAAAAAAAAAAAAAAAAAAAAAAAAAAAAAAAAAAAAAAAAAAAAAAAAAAAAAAAAAAAAAAAAAAAAAAAAAAAAAAAAAAAAAAAAAAAAAAAAAAAAAAAAAAAAAAAAAAAAAAAAAAAAAAAAAAAAAAAAAAAAAAAAAAAAAAAAAAAAAAAAAAAAAAAAAAAAAAAAAAAAAAAAAAAAAAAAAAAAAAAAAAAAAAAAAAAAAAAAAAAAAAAAAAAAAAAAAAAAAAAAAAAAAAAAAAAAAAAAAAAAAAAAAAAAAAAAAAAAAAAAAAAAAAAAAAAAAAAAAAAAAAAAAAAAAAAAAAAAAAAAAAAAAAAAAAAAAAAAAAAAAAAAAAAAAAAAAAAAAAAAAAAAAAAAAAAAAAAAAAAAAAAAAAAAAAAAAAAAAAAAAAAAAAAAAAAAAAAAAAAAAAAAAAAAAAAAAAAAAAAAAAAAAAAAAAAAAAAAAAAAAAAAAAAAAAAAAAAAAAAAAAAAAAAAAAAAAAAAAAAAAAAAAAAAAAAAAAAAAAAAAAAAAAAAAAAAAAAAAAAAAAAAAAAAAAAAAAAAAAAAAAAAAAAAAAAAAAAAAAAAAAAAAAAAAAAAAAAAAAAAAAAAAAAAAAAAAAAAAAAAAAAAAAAAAAAAAAAAAAAAAAAAAAAAAAAAAAAAAAAAAAAAAAAAAAAAAAAAAAAAAAAAAAAAAAAAAAAAAAAAAAAAAAAAAAAAAAAAAAAAAAAAAAAAAAAAAAAAAAAAAAAAAAAAAAAAAAAAAAAAAAAAAAAAAAAAAAAAAAAAAAAAAAAAAAAAAAAAAAAAAAAAAAAAAAAAAAAAAAAAAAAAAAAAAAAAAAAAAAAAAAAAAAAAAAAAAAAAAAAAAAAAAAAAAAAAAAAAAAAAAAAAAAAAAAAAAAAAAAAAAAAAAAAAAAAAAAAAAAAAAAAAAAAAAAAAAAAAAAAAAAAAAAAAAAAAAAAAAAPZYQKHhfffju7J3pk66zFDE3jFnefaNQc31zzk/j3Xy1QibkeYktOE/M+s7c515LdmSRBtv3bThIMiLVS5cke935vQ=</c2pa:manifest></metadata><rect width="64" height="64" rx="14" fill="#0a1a2b"/><g transform="translate(7.40,6.75) scale(0.1302)"><path d="M159.7 31.7c1.4 3.2 3.2 9.8 3.9 14.6l1.5 8.8l-1.1 8.2c-1.5 11.3-4 18.3-12.2 34.3c-10.3 20.2-18.6 38.6-21.9 48.9l-3 9l-0.6 7.8l-0.6 7.8l-3.1-0.6c-1.7-0.3-6.5-2.2-10.6-4.2l-7.5-3.7l-7.5-7.3c-4.1-4-7.5-7.3-7.6-7.3c-0.1-0-2.9 4.2-6.2 9.2c-11.1 17.2-21.3 39.6-26.5 58.3c-4.4 15.4-5.1 20.5-5.2 36l0 15l1.9 7.5c8.1 31.5 27.5 53.1 62.8 70c13 6.2 36.5 14.5 43.9 15.5l4.4 0.7l-5.6-3c-20.9-10.9-34.5-28-37.9-47.7l-1.2-7.1l0.4-10.4c0.5-10 2.8-22.8 4.7-25.9l0.9-1.5l7 7.5l7 7.4l0.5-2.5c0.3-1.4 1.5-7.7 2.6-14.1c6.1-34.4 18.8-59.3 33.4-66l2.7-1.2l-0.2-79.6l-0.3-79.6l-10-5.2c-5.5-2.9-10.3-5.3-10.7-5.3c-0.4-0 0.5 2.6 1.9 5.7z" fill="#FE001B"/><path d="M186.6 74.7c-0.4 18.6-1.1 54.5-1.6 79.8c-0.6 25.3-1 82.4-1 126.8l0 80.8l3.3-0.3l3.2-0.3l0.5-11.4l0.5-11.3l4.5 4l4.5 3.9l3.7-2.5c2.1-1.3 3.8-2.7 3.8-3.1c0-0.3-3.6-4.2-7.9-8.6l-7.9-8l-0.7-5.9l-0.7-5.8l1 0.3c0.5 0.2 4.9 4.1 9.7 8.6l8.9 8.3l3-2.4c1.6-1.2 3.1-2.7 3.3-3.3c0.2-0.5-4.7-5.4-10.9-10.8c-6.2-5.4-11.8-10.3-12.4-10.9c-0.7-0.6-1.5-5.1-1.9-10.1l-0.7-8.9l4 3.4c2.3 1.9 6.5 5.6 9.5 8.3l5.4 4.7l3.7-1.5c2.1-0.9 3.6-2 3.4-2.5c-0.2-0.4-5.9-5.9-12.7-12.1l-12.3-11.2l0.6-3.6c0.3-2 0.6-6.8 0.6-10.6l0-7l17.1-9.9l17.1-9.8l6.1 2.7c3.4 1.5 6.7 3.2 7.4 3.9c0.6 0.6 3.5 9.3 6.4 19.4l5.3 18.3l4-0.7c2.3-0.3 4.3-0.8 4.5-1c0.3-0.3-0.5-5.5-1.7-11.8c-1.2-6.2-2.2-12-2.2-13l0-1.7l4.5 3.2l4.4 3.2l1 3.1c0.5 1.7 2.6 9.2 4.6 16.6c2.1 7.4 4.1 14.3 4.6 15.2l1 1.8l3.5-0c1.9-0 3.7-0.6 3.9-1.3c0.3-0.6-0.5-6.8-1.8-13.7c-1.3-6.9-2.3-12.6-2.1-12.8c0.1-0.2 1.9 0.7 4.1 2.1l3.8 2.4l2.5 9.9l2.5 9.9l5.4 0.3l5.4 0.3l-0.7-6.6l-0.7-6.6l2.3 1.2c1.3 0.6 5.4 3 9.1 5.2c3.7 2.2 6.9 3.8 7.1 3.6c1.8-2.5 4.5-8.2 4.1-8.8c-0.2-0.5-3.8-3-8-5.7c-4.1-2.7-7.5-5.1-7.5-5.4c0-0.3 1.6-1.4 3.6-2.5l3.5-1.9l-0.6-3.5c-0.4-2-0.8-3.7-0.9-3.8c-0.1-0.1-3.5 0.8-7.6 2.1l-7.5 2.3l-7.2-2.5c-4-1.4-7.3-2.8-7.3-3.2c0-0.3 5.5-2.3 12.3-4.4c6.7-2.1 12.5-4.1 12.9-4.5c0.5-0.4 0.2-2.7-0.5-5.1l-1.3-4.5l-1.5 0.1c-0.8 0.1-8.4 2-16.9 4.3l-15.5 4.2l-7-2.4l-7-2.4l10.3-3.2c5.7-1.8 11.4-3.6 12.7-4.1l2.4-0.9l-2.2-5.1c-1.1-2.7-2.6-5-3.2-5c-0.6-0-6.7 2.1-13.6 4.6c-6.8 2.5-14.1 5.1-16.1 5.8l-3.6 1.3l-7.9-4.5c-4.3-2.5-8.1-5-8.5-5.6c-0.4-0.6-0.8-9.5-0.8-19.8l0-18.7l7-5.6l6.9-5.5l17.8 4.5c9.8 2.6 18.5 4.8 19.4 5.1l1.6 0.4l1.2-4.1c0.7-2.3 1.5-4.7 1.7-5.4l0.6-1.3l-12.1-3.9c-6.6-2.1-12.1-4.1-12.1-4.4c0-0.4 2.3-1.6 5-2.7l5.1-2.1l17.5 5.3l17.5 5.4l1-2.7c0.5-1.4 1.2-3.2 1.4-3.8l0.4-1.3l-3.2-1.3c-1.8-0.7-7.6-2.6-12.9-4.2c-5.4-1.6-9.8-3.2-9.8-3.5c0.1-1.1 8.5-6.4 10.1-6.3c1 0.1 5.4 1.3 9.9 2.7c4.4 1.4 8.5 2.6 8.9 2.6c0.5-0 2-1.7 3.4-3.9l2.6-3.9l-4.7-4l-4.7-3.9l8.2-4.1l8.1-4.1l-1.6-5.1c-0.9-2.7-2-5-2.4-5c-0.5-0-5.1 2.2-10.4 5l-9.5 5l0.7-5.6l0.7-5.6l-1.4-0.9c-0.8-0.5-2.6-0.9-4.1-0.9l-2.7-0l-1 3.7c-0.6 2-1.6 6-2.2 8.9l-1.2 5.3l-6.4 5.1c-3.6 2.9-6.6 5-6.7 4.8c-0.2-0.1 1.3-5.8 3.2-12.6l3.6-12.3l-3-2.4c-1.6-1.3-3.4-2.4-3.9-2.5c-0.6-0-3 7.9-5.5 17.6l-4.5 17.6l-5.4 2.4c-2.9 1.3-5.7 2.4-6.1 2.4c-0.4-0 0.3-5.7 1.5-12.6l2.2-12.6l-3.3-1.4c-1.8-0.8-3.7-1.4-4.2-1.4c-0.5-0-2.5 7.7-4.3 17.1l-3.4 17.1l-9.4 5.6l-9.4 5.6l-12.5-6.4c-6.8-3.6-14.6-7.7-17.3-9.3l-4.9-2.7l0-8.4l0-8.3l13-13.6l13-13.7l-2-4.1l-2.1-4l-1.7 1.3c-0.9 0.7-5.9 5-10.9 9.7l-9.3 8.3l0-5.9l0-6l5.3-4.9c2.9-2.7 9.2-8.4 14-12.7l8.7-7.8l-3.3-4c-1.7-2.1-3.5-3.9-3.8-3.9c-0.3-0-5 3.3-10.5 7.4c-5.4 4.1-10 7.3-10.2 7.1c-0.2-0.2-0.1-2.1 0.3-4.2l0.6-3.8l7.9-7c4.4-3.9 7.9-7.5 7.9-8c0.1-0.6-1.3-3.4-3-6.3l-3-5.3l-2.7 2.1c-1.5 1.1-3.9 3-5.4 4.1l-2.8 2l0-9.5l0-9.6l-2.4-0l-2.4-0l-0.6 33.7z M243.5 84l-14 7.8l0.3 5.9c0.1 3.2 0.5 7.1 0.7 8.8l0.5 3l-9.5 17.5c-5.2 9.6-9.5 17.8-9.5 18.1c0 0.4 2 1.8 4.5 3.2l4.4 2.5l0.9-1.1c0.5-0.7 5-8.9 10-18.2l9.1-17l6.1-2.4c3.4-1.3 6.3-2.8 6.6-3.5c0.4-1.1 5.4-30.5 5.4-31.9c0-1.3-1.3-0.7-15.5 7.3z M290.5 191.5l-7 4.5l-20.1-0.7l-20.1-0.6l-0.7 5.3c-0.4 2.9-0.5 5.5-0.2 5.7c0.3 0.3 9.7 0.8 21 1.1l20.5 0.5l5.1 4.5l5.2 4.5l15.6-5c8.6-2.7 15.7-5.4 15.9-5.9c0.3-1-24.3-17.7-26.7-18.2c-0.8-0.1-4.6 1.8-8.5 4.3z M211.2 253.1l-4.3 3.1l1.3 1.9c0.7 1 5.9 8.6 11.5 16.8l10.2 14.9l-0.6 7.3l-0.5 7.4l12.8 9.5c7 5.2 13.1 9.6 13.6 9.8c0.9 0.4 1.1-15.3 0.2-26l-0.7-7.5l-7.7-3.3l-7.8-3.2l-11.3-16.9c-6.2-9.3-11.5-16.9-11.8-16.9c-0.3 0.1-2.5 1.5-4.9 3.1z" fill="#72B4F8"/></g></svg>
